<?xml version="1.0" encoding="UTF-8" standalone="no"?>
<!-- Created with Inkscape (http://www.inkscape.org/) -->

<svg
   version="1.1"
   id="svg1"
   width="400"
   height="400"
   viewBox="0 0 400 400"
   sodipodi:docname="Arasakalogo.png"
   xmlns:inkscape="http://www.inkscape.org/namespaces/inkscape"
   xmlns:sodipodi="http://sodipodi.sourceforge.net/DTD/sodipodi-0.dtd"
   xmlns="http://www.w3.org/2000/svg"
   xmlns:svg="http://www.w3.org/2000/svg">
  <defs
     id="defs1" />
  <sodipodi:namedview
     id="namedview1"
     pagecolor="#ffffff"
     bordercolor="#000000"
     borderopacity="0.25"
     inkscape:showpageshadow="2"
     inkscape:pageopacity="0.0"
     inkscape:pagecheckerboard="0"
     inkscape:deskcolor="#d1d1d1">
    <inkscape:page
       x="0"
       y="0"
       width="400"
       height="400"
       id="page2"
       margin="0"
       bleed="0" />
  </sodipodi:namedview>
  <g
     inkscape:groupmode="layer"
     inkscape:label="Image"
     id="g1">
    <path
       style="fill:#fd0404;stroke:none"
       d="M 196.60945,15.014575 C 147.52663,19.309782 101.24566,33.364755 66.169124,70.448719 -28.492751,170.52809 14.627386,339.9815 148.60945,378.39626 c 20.7091,5.93762 43.83134,8.48795 65.33334,6.44034 95.15665,-9.06168 166.48677,-86.01391 170.61417,-181.10701 C 388.80359,105.88922 297.77343,6.1617927 196.60945,15.014575 m -12,26.428996 c 18.88829,-2.23584 39.08482,0.160279 57.33334,5.155355 18.76684,5.136963 36.16569,13.932536 52,25.183126 91.96057,65.339748 80.90218,206.877148 -12,264.713998 -18.2074,11.33514 -39.94019,19.28448 -61.33334,21.678 -46.97017,5.25512 -93.82217,-8.0426 -129.333331,-40.00517 C 32.919389,265.64371 22.60046,171.39764 68.820359,107.72959 81.408677,90.389148 97.092301,75.616891 115.27612,64.296456 136.48124,51.095061 159.97664,44.359424 184.60945,41.443571 m 0,119.619349 v 84 c -7.39624,-7.39624 -25.88726,-19.8775 -28.4465,-30.10083 -1.3554,-5.41436 4.9148,-14.66931 5.54835,-20.56583 2.56722,-23.89315 -6.57823,-46.80225 -27.76851,-59.36625 -51.036539,-30.26024 -109.89243,30.31317 -79.38066,80.69958 10.931935,18.05273 32.702464,29.87252 54.04732,27.77262 7.21402,-0.70969 18.681,-7.48781 25.33334,-5.77467 7.8036,2.00962 15.79815,13.80021 21.33333,19.33538 8.64781,8.64781 22.45911,18.32565 27.96295,29.33334 2.95282,5.90562 1.37038,14.90193 1.37038,21.33333 v 45.33333 h 29.33334 v -45.33333 c 0,-6.4314 -1.58242,-15.42773 1.37038,-21.33333 5.50384,-11.00769 19.31514,-20.68553 27.96295,-29.33334 5.68553,-5.68552 12.47927,-15.52681 20,-18.67592 6.62628,-2.77458 20.43606,4.73781 28,5.22223 26.3737,1.68904 50.5402,-16.43298 58.20268,-41.21297 15.96972,-51.64531 -44.37728,-95.67794 -88.86935,-65.03909 -15.47326,10.65546 -26.76054,31.15652 -24.93312,50.37242 0.71698,7.53931 7.10992,19.73313 5.41666,26.66667 -2.94869,12.07434 -20.47483,19.21134 -25.81687,30.66666 h -1.33333 v -84 c 35.36729,-6.08974 52.87605,-50.67916 37.58642,-81.333338 -11.73283,-23.523112 -33.68502,-33.093099 -58.91976,-31.94751 -61.9011,2.81014 -70.56364,103.903368 -8,113.280848 z"
       id="path1" />
  </g>
</svg>
